<svg width="21" height="20" viewBox="0 0 21 20" fill="none" xmlns="http://www.w3.org/2000/svg">
<path fill-rule="evenodd" clip-rule="evenodd" d="M8.83342 1.66667C8.6124 1.66667 8.40044 1.75447 8.24416 1.91075L7.6549 2.50001H4.25008C3.78984 2.50001 3.41675 2.8731 3.41675 3.33334C3.41675 3.79358 3.78984 4.16667 4.25008 4.16667H16.7501C17.2103 4.16667 17.5834 3.79358 17.5834 3.33334C17.5834 2.8731 17.2103 2.50001 16.7501 2.50001H13.3453L12.756 1.91075C12.5997 1.75447 12.3878 1.66667 12.1667 1.66667H8.83342ZM4.49416 5.66075C4.65044 5.50447 4.8624 5.41667 5.08341 5.41667H15.9167C16.377 5.41667 16.7501 5.78977 16.7501 6.25001V13.5V13.5344V13.5345C16.7501 14.2053 16.7501 14.7589 16.7133 15.2099C16.675 15.6783 16.5928 16.1089 16.3868 16.5133C16.0672 17.1405 15.5573 17.6504 14.93 17.97C14.5256 18.1761 14.095 18.2582 13.6266 18.2965C13.1756 18.3334 12.622 18.3333 11.9512 18.3333H11.9167H9.08341H9.04898C8.37818 18.3333 7.82455 18.3334 7.37356 18.2965C6.90514 18.2582 6.47456 18.1761 6.07011 17.97C5.44291 17.6504 4.93297 17.1405 4.61339 16.5133C4.40732 16.1089 4.32518 15.6783 4.28691 15.2099C4.25006 14.7589 4.25007 14.2052 4.25008 13.5344L4.25008 13.5V6.25001C4.25008 6.02899 4.33788 5.81703 4.49416 5.66075ZM5.91675 7.08334V13.5C5.91675 14.2138 5.9174 14.6991 5.94804 15.0741C5.97789 15.4395 6.032 15.6263 6.0984 15.7567C6.25819 16.0703 6.51316 16.3252 6.82676 16.485C6.9571 16.5514 7.14393 16.6055 7.50928 16.6354C7.88435 16.666 8.3696 16.6667 9.08341 16.6667H11.9167C12.6306 16.6667 13.1158 16.666 13.4909 16.6354C13.8562 16.6055 14.0431 16.5514 14.1734 16.485C14.487 16.3252 14.742 16.0703 14.9018 15.7567C14.9682 15.6263 15.0223 15.4395 15.0521 15.0741C15.0828 14.6991 15.0834 14.2138 15.0834 13.5V7.08334H5.91675Z" fill="white"/>
</svg>
