<svg width="168" height="24" viewBox="0 0 168 24" fill="none" xmlns="http://www.w3.org/2000/svg">
<g clip-path="url(#clip0_1_127)">
<rect width="168" height="24" fill="#9747FF" fill-opacity="0.2"/>
<path fill-rule="evenodd" clip-rule="evenodd" d="M12.7682 6.18566C12.6406 5.87372 12.337 5.66992 12 5.66992C11.663 5.66992 11.3594 5.87372 11.2318 6.18566L6.73181 17.1857C6.55825 17.6099 6.76149 18.0946 7.18575 18.2681C7.61002 18.4417 8.09466 18.2385 8.26822 17.8142L9.48906 14.8299H14.511L15.7318 17.8142C15.9054 18.2385 16.39 18.4417 16.8143 18.2681C17.2386 18.0946 17.4418 17.6099 17.2682 17.1857L12.7682 6.18566ZM13.8319 13.1699L12 8.69202L10.1681 13.1699H13.8319Z" fill="white"/>
<path fill-rule="evenodd" clip-rule="evenodd" d="M75.827 5.13803C75.5 5.77976 75.5 6.61984 75.5 8.3V15.7C75.5 17.3802 75.5 18.2202 75.827 18.862C76.1146 19.4265 76.5735 19.8854 77.138 20.173C77.7798 20.5 78.6198 20.5 80.3 20.5H87.7C89.3802 20.5 90.2202 20.5 90.862 20.173C91.4265 19.8854 91.8854 19.4265 92.173 18.862C92.5 18.2202 92.5 17.3802 92.5 15.7V8.3C92.5 6.61984 92.5 5.77976 92.173 5.13803C91.8854 4.57354 91.4265 4.1146 90.862 3.82698C90.2202 3.5 89.3802 3.5 87.7 3.5H80.3C78.6198 3.5 77.7798 3.5 77.138 3.82698C76.5735 4.1146 76.1146 4.57354 75.827 5.13803ZM84 5.67001C84.337 5.67001 84.6406 5.87381 84.7682 6.18575L89.2682 17.1857C89.4418 17.61 89.2386 18.0947 88.8143 18.2682C88.39 18.4418 87.9054 18.2385 87.7318 17.8143L86.511 14.83H81.4891L80.2682 17.8143C80.0947 18.2385 79.61 18.4418 79.1858 18.2682C78.7615 18.0947 78.5583 17.61 78.7318 17.1857L83.2318 6.18575C83.3594 5.87381 83.663 5.67001 84 5.67001ZM84 8.69211L85.8319 13.17H82.1681L84 8.69211Z" fill="white"/>
<mask id="path-3-outside-1_1_127" maskUnits="userSpaceOnUse" x="148.67" y="3.66992" width="15" height="17" fill="black">
<rect fill="white" x="148.67" y="3.66992" width="15" height="17"/>
<path fill-rule="evenodd" clip-rule="evenodd" d="M156.768 6.18566C156.641 5.87372 156.337 5.66992 156 5.66992C155.663 5.66992 155.359 5.87372 155.232 6.18566L150.732 17.1857C150.558 17.6099 150.761 18.0946 151.186 18.2681C151.61 18.4417 152.095 18.2385 152.268 17.8142L153.489 14.8299H158.511L159.732 17.8142C159.905 18.2385 160.39 18.4417 160.814 18.2681C161.239 18.0946 161.442 17.6099 161.268 17.1857L156.768 6.18566ZM157.832 13.1699L156 8.69202L154.168 13.1699H157.832Z"/>
</mask>
<path d="M156.768 6.18566L155.232 6.81419L155.232 6.81419L156.768 6.18566ZM155.232 6.18566L153.695 5.55713V5.55713L155.232 6.18566ZM150.732 17.1857L149.195 16.5571L149.195 16.5571L150.732 17.1857ZM152.268 17.8142L150.732 17.1857L150.732 17.1857L152.268 17.8142ZM153.489 14.8299V13.1699C152.815 13.1699 152.208 13.5775 151.953 14.2014L153.489 14.8299ZM158.511 14.8299L160.047 14.2014C159.792 13.5775 159.185 13.1699 158.511 13.1699V14.8299ZM159.732 17.8142L161.268 17.1857L159.732 17.8142ZM161.268 17.1857L162.805 16.5571L161.268 17.1857ZM157.832 13.1699V14.8299C158.385 14.8299 158.902 14.5544 159.21 14.0952C159.518 13.636 159.578 13.0533 159.368 12.5414L157.832 13.1699ZM156 8.69202L157.536 8.06349C157.281 7.43962 156.674 7.03202 156 7.03202C155.326 7.03202 154.719 7.43962 154.464 8.06349L156 8.69202ZM154.168 13.1699L152.632 12.5414C152.422 13.0533 152.482 13.636 152.79 14.0952C153.098 14.5544 153.615 14.8299 154.168 14.8299V13.1699ZM156 7.32992C155.663 7.32992 155.359 7.12612 155.232 6.81419L158.305 5.55713C157.922 4.62132 157.011 4.00992 156 4.00992V7.32992ZM156.768 6.81419C156.641 7.12612 156.337 7.32992 156 7.32992V4.00992C154.989 4.00992 154.078 4.62132 153.695 5.55713L156.768 6.81419ZM152.268 17.8142L156.768 6.81419L153.695 5.55713L149.195 16.5571L152.268 17.8142ZM151.814 16.7317C152.239 16.9053 152.442 17.3899 152.268 17.8142L149.195 16.5571C148.675 17.8299 149.284 19.2838 150.557 19.8045L151.814 16.7317ZM150.732 17.1857C150.905 16.7614 151.39 16.5582 151.814 16.7317L150.557 19.8045C151.83 20.3252 153.284 19.7155 153.805 18.4427L150.732 17.1857ZM151.953 14.2014L150.732 17.1857L153.805 18.4427L155.025 15.4585L151.953 14.2014ZM158.511 13.1699H153.489V16.4899H158.511V13.1699ZM161.268 17.1857L160.047 14.2014L156.975 15.4585L158.195 18.4427L161.268 17.1857ZM160.186 16.7317C160.61 16.5582 161.095 16.7614 161.268 17.1857L158.195 18.4427C158.716 19.7155 160.17 20.3252 161.443 19.8045L160.186 16.7317ZM159.732 17.8142C159.558 17.3899 159.761 16.9053 160.186 16.7317L161.443 19.8045C162.716 19.2838 163.325 17.8299 162.805 16.5571L159.732 17.8142ZM155.232 6.81419L159.732 17.8142L162.805 16.5571L158.305 5.55713L155.232 6.81419ZM159.368 12.5414L157.536 8.06349L154.464 9.32055L156.295 13.7985L159.368 12.5414ZM154.464 8.06349L152.632 12.5414L155.705 13.7985L157.536 9.32055L154.464 8.06349ZM154.168 14.8299H157.832V11.5099H154.168V14.8299Z" fill="white" mask="url(#path-3-outside-1_1_127)"/>
</g>
<defs>
<clipPath id="clip0_1_127">
<rect width="168" height="24" fill="white"/>
</clipPath>
</defs>
</svg>
