<svg width="21" height="20" viewBox="0 0 21 20" fill="none" xmlns="http://www.w3.org/2000/svg">
<path fill-rule="evenodd" clip-rule="evenodd" d="M13.4167 2.50001C13.4167 2.96024 13.0437 3.33334 12.5834 3.33334C12.1232 3.33334 11.7501 2.96024 11.7501 2.50001C11.7501 2.03977 12.1232 1.66667 12.5834 1.66667C13.0437 1.66667 13.4167 2.03977 13.4167 2.50001ZM13.6251 6.04167C13.6251 6.61697 13.1587 7.08334 12.5834 7.08334C12.0081 7.08334 11.5417 6.61697 11.5417 6.04167C11.5417 5.46638 12.0081 5.00001 12.5834 5.00001C13.1587 5.00001 13.6251 5.46638 13.6251 6.04167ZM12.5834 11.25C13.2738 11.25 13.8334 10.6904 13.8334 10C13.8334 9.30965 13.2738 8.75001 12.5834 8.75001C11.8931 8.75001 11.3334 9.30965 11.3334 10C11.3334 10.6904 11.8931 11.25 12.5834 11.25ZM15.9167 11.0417C16.492 11.0417 16.9584 10.5753 16.9584 10C16.9584 9.42471 16.492 8.95834 15.9167 8.95834C15.3415 8.95834 14.8751 9.42471 14.8751 10C14.8751 10.5753 15.3415 11.0417 15.9167 11.0417ZM12.5834 15C13.1587 15 13.6251 14.5336 13.6251 13.9583C13.6251 13.383 13.1587 12.9167 12.5834 12.9167C12.0081 12.9167 11.5417 13.383 11.5417 13.9583C11.5417 14.5336 12.0081 15 12.5834 15ZM19.6667 10C19.6667 10.4602 19.2937 10.8333 18.8334 10.8333C18.3732 10.8333 18.0001 10.4602 18.0001 10C18.0001 9.53977 18.3732 9.16667 18.8334 9.16667C19.2937 9.16667 19.6667 9.53977 19.6667 10ZM12.5834 18.3333C13.0437 18.3333 13.4167 17.9602 13.4167 17.5C13.4167 17.0398 13.0437 16.6667 12.5834 16.6667C12.1232 16.6667 11.7501 17.0398 11.7501 17.5C11.7501 17.9602 12.1232 18.3333 12.5834 18.3333ZM15.9167 15C16.377 15 16.7501 14.6269 16.7501 14.1667C16.7501 13.7064 16.377 13.3333 15.9167 13.3333C15.4565 13.3333 15.0834 13.7064 15.0834 14.1667C15.0834 14.6269 15.4565 15 15.9167 15ZM16.7501 6.04167C16.7501 6.50191 16.377 6.87501 15.9167 6.87501C15.4565 6.87501 15.0834 6.50191 15.0834 6.04167C15.0834 5.58143 15.4565 5.20834 15.9167 5.20834C16.377 5.20834 16.7501 5.58143 16.7501 6.04167ZM15.9167 3.12501C16.2619 3.12501 16.5417 2.84518 16.5417 2.50001C16.5417 2.15483 16.2619 1.87501 15.9167 1.87501C15.5716 1.87501 15.2917 2.15483 15.2917 2.50001C15.2917 2.84518 15.5716 3.12501 15.9167 3.12501ZM19.4584 6.04167C19.4584 6.38685 19.1786 6.66667 18.8334 6.66667C18.4882 6.66667 18.2084 6.38685 18.2084 6.04167C18.2084 5.69649 18.4882 5.41667 18.8334 5.41667C19.1786 5.41667 19.4584 5.69649 19.4584 6.04167ZM18.8334 14.7917C19.1786 14.7917 19.4584 14.5118 19.4584 14.1667C19.4584 13.8215 19.1786 13.5417 18.8334 13.5417C18.4882 13.5417 18.2084 13.8215 18.2084 14.1667C18.2084 14.5118 18.4882 14.7917 18.8334 14.7917ZM19.2501 17.5C19.2501 17.7301 19.0635 17.9167 18.8334 17.9167C18.6033 17.9167 18.4167 17.7301 18.4167 17.5C18.4167 17.2699 18.6033 17.0833 18.8334 17.0833C19.0635 17.0833 19.2501 17.2699 19.2501 17.5ZM18.8334 2.91667C19.0635 2.91667 19.2501 2.73012 19.2501 2.50001C19.2501 2.26989 19.0635 2.08334 18.8334 2.08334C18.6033 2.08334 18.4167 2.26989 18.4167 2.50001C18.4167 2.73012 18.6033 2.91667 18.8334 2.91667ZM16.5417 17.5C16.5417 17.8452 16.2619 18.125 15.9167 18.125C15.5716 18.125 15.2917 17.8452 15.2917 17.5C15.2917 17.1548 15.5716 16.875 15.9167 16.875C16.2619 16.875 16.5417 17.1548 16.5417 17.5ZM8.29774 1.66668H8.33342H9.66675C10.127 1.66668 10.5001 2.03977 10.5001 2.50001C10.5001 2.96025 10.127 3.33334 9.66675 3.33334H8.33342C7.38624 3.33334 6.72598 3.33399 6.21195 3.37599C5.70764 3.41719 5.4179 3.49401 5.19844 3.60583C4.72803 3.84551 4.34558 4.22796 4.1059 4.69837C3.99408 4.91783 3.91726 5.20757 3.87606 5.71188C3.83406 6.22591 3.83341 6.88617 3.83341 7.83334V12.1667C3.83341 13.1138 3.83406 13.7741 3.87606 14.2881C3.88016 14.3383 3.88461 14.3863 3.88941 14.4324L5.16771 12.3467L5.18756 12.3143C5.45258 11.8819 5.68087 11.5094 5.89024 11.2289C6.10389 10.9426 6.37222 10.6462 6.75608 10.4801C7.28399 10.2516 7.88284 10.2516 8.41075 10.4801C8.79461 10.6462 9.06294 10.9426 9.27659 11.2289C9.48596 11.5094 9.71425 11.8819 9.97927 12.3143L9.99912 12.3467L10.0816 12.4812C10.3221 12.8736 10.1989 13.3867 9.80652 13.6272C9.41412 13.8677 8.90105 13.7445 8.66055 13.3521L8.57812 13.2177C8.2876 12.7437 8.09905 12.4376 7.94093 12.2257C7.81455 12.0564 7.75445 12.014 7.74567 12.0083C7.64195 11.9644 7.52488 11.9644 7.42116 12.0083C7.41238 12.014 7.35228 12.0564 7.2259 12.2257C7.06778 12.4376 6.87923 12.7437 6.58871 13.2177L4.79788 16.1395C4.92238 16.2364 5.0564 16.3218 5.19844 16.3942C5.4179 16.506 5.70764 16.5828 6.21195 16.624C6.72598 16.666 7.38624 16.6667 8.33341 16.6667H9.66675C10.127 16.6667 10.5001 17.0398 10.5001 17.5C10.5001 17.9602 10.127 18.3333 9.66675 18.3333H8.33341H8.29772C7.39458 18.3334 6.66612 18.3334 6.07623 18.2852C5.46885 18.2355 4.93536 18.1307 4.44179 17.8792C3.65778 17.4797 3.02036 16.8423 2.62089 16.0583C2.3694 15.5647 2.26455 15.0312 2.21493 14.4239C2.16673 13.834 2.16674 13.1055 2.16675 12.2023V12.1667V7.83334V7.79767C2.16674 6.89452 2.16673 6.16606 2.21493 5.57616C2.26455 4.96878 2.3694 4.43529 2.62089 3.94172C3.02036 3.15771 3.65778 2.52029 4.44179 2.12082C4.93536 1.86933 5.46885 1.76448 6.07623 1.71486C6.66612 1.66666 7.39458 1.66667 8.29773 1.66668H8.29774Z" fill="white"/>
</svg>
